{"title":"Bring Me The Horizon - Drown (2014.Rock)","uid":11470457,"size":72060992,"categoryP":"video","categoryS":"music_videos","magnet":"?xt=urn:btih:39f8341dc48d01dde0ad273912dae5a03bb7c54d&amp;dn=Bring+Me+The+Horizon+-+Drown+%282014.Rock%29&amp;tr=udp%3A%2F%2Ftracker.openbittorrent.com%3A80&amp;tr=udp%3A%2F%2Fopen.demonii.com%3A1337&amp;tr=udp%3A%2F%2Ftracker.coppersurfer.tk%3A6969&amp;tr=udp%3A%2F%2Fexodus.desync.com%3A6969","seeders":8,"leechers":0,"uploader":"MeRaDil","files":-1,"time":1416076920,"description":"BRING ME THE HORIZON - DROWN\n\n &lt;a href=&quot;\nhttp://gifyu.com/images/drown.png&quot; rel=&quot;nofollow&quot; target=&quot;_NEW&quot;&gt;\nhttp://gifyu.com/images/drown.png&lt;/a&gt;\n\nMPEG4 MUSIC VID\nGeneral\nBring Me The Horizon - Drown\nFormat                                   : MPEG-4\nFormat profile                           : Base Media\nCodec ID                                 : isom\nFile size                                : 68.7 MiB\nDuration                                 : 4mn 5s\nOverall bit rate                         : 2 350 Kbps\nMusicVid name                            : Drown\nPerformer                                : Bring Me The Horizon\nGenre                                    : Rock\nContentType                              : Music Video\nRecorded date                            : 2014\nISRC                                     : The Promo Bay\nCopyright                                : Bring Me the Horizon\nCover                                    : Yes\nRating                                   : ***\nMake                                     : MeRaDil\noday                                     : 21-10-2014  UK\nrati                                     : (Binary)\nArtist url                               : http://www.bringmethehorizon.co.uk\nlabel                                    : Epitaph Records . RCA\nrelease                                  : UK - october 21 - 2014\nPart_ID                                  : Drown\n\nVideo\nID                                       : 1\nFormat                                   : AVC\nFormat/Info                              : Advanced Video Codec\nFormat profile                           : &lt;a class=&quot;__cf_email__&quot; href=&quot;/cdn-cgi/l/email-protection&quot; data-cfemail=&quot;eca4858b84aca0d8c2dc&quot;&gt;[email&amp;#160;protected]&lt;/a&gt;&lt;script cf-hash='f9e31' type=&quot;text/javascript&quot;&gt;\n/* &lt;![CDATA[ */!function(){try{var t=&quot;currentScript&quot;in document?document.currentScript:function(){for(var t=document.getElementsByTagName(&quot;script&quot;),e=t.length;e--;)if(t[e].getAttribute(&quot;cf-hash&quot;))return t[e]}();if(t&amp;&amp;t.previousSibling){var e,r,n,i,c=t.previousSibling,a=c.getAttribute(&quot;data-cfemail&quot;);if(a){for(e=&quot;&quot;,r=parseInt(a.substr(0,2),16),n=2;a.length-n;n+=2)i=parseInt(a.substr(n,2),16)^r,e+=String.fromCharCode(i);e=document.createTextNode(e),c.parentNode.replaceChild(e,c)}}}catch(u){}}();/* ]]&gt; */&lt;/script&gt;\nFormat settings, CABAC                   : Yes\nFormat settings, ReFrames                : 3 frames\nCodec ID                                 : avc1\nCodec ID/Info                            : Advanced Video Coding\nDuration                                 : 4mn 5s\nBit rate                                 : 2 087 Kbps\nWidth                                    : 1 920 pixels\nHeight                                   : 1 080 pixels\nDisplay aspect ratio                     : 16:9\nFrame rate mode                          : Constant\nFrame rate                               : 25.000 fps\nColor space                              : YUV\nChroma subsampling                       : 4:2:0\nBit depth                                : 8 bits\nScan type                                : Progressive\nBits/(Pixel*Frame)                       : 0.040\nStream size                              : 61.0 MiB (89%)\n\nAudio\nID                                       : 2\nFormat                                   : AAC\nFormat/Info                              : Advanced Audio Codec\nFormat profile                           : LC\nCodec ID                                 : 40\nDuration                                 : 4mn 5s\nBit rate mode                            : Constant\nBit rate                                 : 256 Kbps\nChannel(s)                               : 2 channels\nChannel positions                        : Front: L R\nSampling rate                            : 44.1 KHz\nCompression mode                         : Lossy\nStream size                              : 7.49 MiB (11%)\n &lt;a href=&quot;\nhttps://thepiratebay.se/user/MeRaDil&quot; rel=&quot;nofollow&quot; target=&quot;_NEW&quot;&gt;\nhttps://thepiratebay.se/user/MeRaDil&lt;/a&gt;\n\nBring Me the Horizon * Promo\n\n:)","torrent":{"xt":"urn:btih:39f8341dc48d01dde0ad273912dae5a03bb7c54d","amp;dn":"Bring+Me+The+Horizon+-+Drown+%282014.Rock%29","amp;tr":["udp%3A%2F%2Ftracker.openbittorrent.com%3A80","udp%3A%2F%2Fopen.demonii.com%3A1337","udp%3A%2F%2Ftracker.coppersurfer.tk%3A6969","udp%3A%2F%2Fexodus.desync.com%3A6969"],"infoHash":"39f8341dc48d01dde0ad273912dae5a03bb7c54d","infoHashBuffer":{"type":"Buffer","data":[57,248,52,29,196,141,1,221,224,173,39,57,18,218,229,160,59,183,197,77]},"announce":[],"urlList":[]}}